<svg xmlns="http://www.w3.org/2000/svg" fill="none" viewBox="0 0 512 512"><defs><linearGradient id="bg" x1="0" x2="1" y1="0" y2="1"><stop offset="0%" stop-color="#0C9"/><stop offset="100%" stop-color="#00B386"/></linearGradient><linearGradient id="body" x1="0" x2="1" y1="0" y2="1"><stop offset="0%" stop-color="#66E6C2"/><stop offset="100%" stop-color="#99F0D6"/></linearGradient></defs><rect width="512" height="512" fill="url(#bg)" rx="112"/><path fill="url(#body)" d="M155 330 C135 290 130 240 155 195 C180 150 225 125 275 118 C325 112 360 130 380 160 C400 190 405 230 388 270 C370 310 340 330 305 338 L320 355 C335 368 325 385 305 382 L255 368 C215 362 180 350 155 330Z" opacity=".95"/><ellipse cx="370" cy="198" fill="url(#body)" opacity=".95" rx="68" ry="62"/><path fill="#99F0D6" d="M410 185 C425 180 435 184 438 193 C432 197 420 195 410 193Z" opacity=".8"/><path fill="none" stroke="#00996B" stroke-linecap="round" stroke-width="3" d="M405 205 C415 212 425 213 430 208" opacity=".5"/><circle cx="380" cy="188" r="26" fill="#1a3a2e"/><circle cx="380" cy="188" r="19" fill="#fbbf24"/><ellipse cx="380" cy="188" fill="#1a3a2e" rx="5.5" ry="16"/><circle cx="373" cy="181" r="6" fill="#fff" opacity=".85"/><path fill="#33D4A8" d="M338 155 C345 135 362 128 378 132 C374 145 365 152 352 158Z" opacity=".6"/><path fill="none" stroke="#99F0D6" stroke-linecap="round" stroke-width="20" d="M155 330 C135 348 122 375 128 398 C134 420 155 428 170 422 C185 416 188 396 180 380 C172 365 158 358 153 350" opacity=".9"/><path fill="none" stroke="#66E6C2" stroke-linecap="round" stroke-width="15" d="M278 338 L274 380 C272 390 264 394 258 389 L252 380" opacity=".9"/><path fill="none" stroke="#66E6C2" stroke-linecap="round" stroke-width="15" d="M218 342 L214 382 C212 392 204 396 198 391 L192 382" opacity=".9"/><path fill="none" stroke="#33D4A8" stroke-linecap="round" stroke-width="4.5" d="M200 220 C235 215 275 220 310 245" opacity=".35"/></svg>