<svg xmlns="http://www.w3.org/2000/svg" aria-labelledby="title desc" role="img" viewBox="0 0 256 256"><title id="title">Open Finance Greek coin mark</title><desc id="desc">An Attic-style coin seal with a temple pediment, meander border, olive strokes, and an Omicron Phi ledger monogram.</desc><defs><filter id="paper" width="136%" height="136%" x="-18%" y="-18%"><feTurbulence baseFrequency=".82" numOctaves="2" result="noise" seed="17" type="fractalNoise"/><feColorMatrix in="noise" type="matrix" values="0 0 0 0 0.12 0 0 0 0 0.1 0 0 0 0 0.06 0 0 0 .13 0"/><feBlend in="SourceGraphic" mode="multiply"/></filter></defs><circle cx="128" cy="128" r="116" fill="#efe7d2" stroke="#15140f" stroke-width="7"/><circle cx="128" cy="128" r="102" fill="#f7f1de" stroke="#b78c38" stroke-dasharray="14 8" stroke-width="5"/><circle cx="128" cy="128" r="84" fill="#efe7d2" stroke="#315f8b" stroke-width="2" opacity=".74"/><g fill="none" stroke="#315f8b" stroke-linecap="square" stroke-linejoin="miter" stroke-width="8" opacity=".95"><path d="M55 49h35v15H70v20H55z"/><path d="M201 49v35h-15V64h-20V49z"/><path d="M201 207h-35v-15h20v-20h15z"/><path d="M55 207v-35h15v20h20v15z"/></g><g filter="url(#paper)"><path fill="#efe7d2" stroke="#18344f" stroke-linejoin="miter" stroke-width="9" d="M67 105 128 63l61 42z"/><path stroke="#18344f" stroke-linecap="square" stroke-width="12" d="M74 112h108"/><g fill="#18344f"><rect width="12" height="54" x="83" y="126"/><rect width="12" height="54" x="107" y="126"/><rect width="12" height="54" x="137" y="126"/><rect width="12" height="54" x="161" y="126"/><rect width="104" height="13" x="76" y="181"/><rect width="80" height="8" x="88" y="200"/></g><g fill="none" stroke="#18344f" stroke-linecap="square"><circle cx="128" cy="151" r="34" stroke-width="12"/><path stroke-width="12" d="M128 112v82"/><path stroke-width="9" d="M128 130h34M128 149h27"/></g></g><g opacity=".82"><path fill="none" stroke="#5aa889" stroke-linecap="round" stroke-width="5" d="M60 153c-13 8-21 19-24 33"/><path fill="#5aa889" d="M42 159c6-5 13-5 19 0-5 5-13 5-19 0z" transform="rotate(-33 52 159)"/><path fill="#5aa889" d="M32 174c5-4 11-4 16 0-4 4-11 4-16 0z" transform="rotate(-49 40 174)"/><path fill="none" stroke="#5aa889" stroke-linecap="round" stroke-width="5" d="M196 153c13 8 21 19 24 33"/><path fill="#5aa889" d="M196 159c6-5 13-5 19 0-5 5-13 5-19 0z" transform="rotate(213 206 159)"/><path fill="#5aa889" d="M208 174c5-4 11-4 16 0-4 4-11 4-16 0z" transform="rotate(229 216 174)"/></g><path fill="none" stroke="#b78c38" stroke-dasharray="16 9" stroke-linecap="square" stroke-width="5" d="M73 214h110"/><circle cx="128" cy="222" r="8" fill="#ed6f5c"/></svg>