<svg xmlns="http://www.w3.org/2000/svg" aria-labelledby="title desc" role="img" viewBox="0 0 256 256"><title id="title">Open Finance logo option 1 - Temple Treasury</title><desc id="desc">A Greek treasury temple inside an Attic coin, with a Phi-style ledger monogram and meander corner geometry.</desc><defs><filter id="grain" width="124%" height="124%" x="-12%" y="-12%"><feTurbulence baseFrequency=".78" numOctaves="2" result="noise" seed="11" type="fractalNoise"/><feColorMatrix in="noise" type="matrix" values="0 0 0 0 0.10 0 0 0 0 0.08 0 0 0 0 0.04 0 0 0 .16 0"/><feBlend in="SourceGraphic" mode="multiply"/></filter></defs><circle cx="128" cy="128" r="116" fill="#efe7d2" stroke="#15140f" stroke-width="7"/><circle cx="128" cy="128" r="102" fill="#f8f0d8" stroke="#b78c38" stroke-dasharray="13 8" stroke-width="5"/><path fill="#315f8b" d="M57 54h35v13H70v22H57zM199 54v35h-13V67h-22V54zM199 202h-35v-13h22v-22h13zM57 202v-35h13v22h22v13z"/><g filter="url(#grain)"><path fill="#f3ead3" stroke="#18344f" stroke-linejoin="miter" stroke-width="9" d="M70 103 128 64l58 39z"/><path stroke="#18344f" stroke-linecap="square" stroke-width="12" d="M78 113h100"/><rect width="104" height="12" x="76" y="181" fill="#18344f"/><rect width="76" height="8" x="90" y="198" fill="#18344f"/><g fill="#18344f"><rect width="11" height="51" x="87" y="127"/><rect width="11" height="51" x="108" y="127"/><rect width="11" height="51" x="137" y="127"/><rect width="11" height="51" x="158" y="127"/></g><circle cx="128" cy="153" r="31" fill="none" stroke="#18344f" stroke-width="11"/><path fill="none" stroke="#18344f" stroke-linecap="square" stroke-width="10" d="M128 119v78M128 134h30M128 151h24"/></g><path stroke="#ed6f5c" stroke-linecap="square" stroke-width="6" d="M79 220h98"/></svg>