<svg xmlns="http://www.w3.org/2000/svg" viewBox="0 0 760 220" role="img" aria-labelledby="title desc">
  <title id="title">Open Finance Greek horizontal logo</title>
  <desc id="desc">Open Finance wordmark with an Attic temple coin mark and local-first finance tagline.</desc>
  <defs>
    <g id="mark">
      <circle cx="128" cy="128" r="116" fill="#efe7d2" stroke="#15140f" stroke-width="7"/>
      <circle cx="128" cy="128" r="102" fill="#f7f1de" stroke="#b78c38" stroke-width="5" stroke-dasharray="14 8"/>
      <circle cx="128" cy="128" r="84" fill="#efe7d2" stroke="#315f8b" stroke-width="2" opacity=".74"/>
      <g fill="none" stroke="#315f8b" stroke-width="8" stroke-linecap="square" stroke-linejoin="miter" opacity=".95">
        <path d="M55 49h35v15H70v20H55z"/>
        <path d="M201 49v35h-15V64h-20V49z"/>
        <path d="M201 207h-35v-15h20v-20h15z"/>
        <path d="M55 207v-35h15v20h20v15z"/>
      </g>
      <path d="M67 105 128 63l61 42z" fill="#efe7d2" stroke="#18344f" stroke-width="9" stroke-linejoin="miter"/>
      <path d="M74 112h108" stroke="#18344f" stroke-width="12" stroke-linecap="square"/>
      <g fill="#18344f">
        <rect x="83" y="126" width="12" height="54"/>
        <rect x="107" y="126" width="12" height="54"/>
        <rect x="137" y="126" width="12" height="54"/>
        <rect x="161" y="126" width="12" height="54"/>
        <rect x="76" y="181" width="104" height="13"/>
        <rect x="88" y="200" width="80" height="8"/>
      </g>
      <g fill="none" stroke="#18344f" stroke-linecap="square">
        <circle cx="128" cy="151" r="34" stroke-width="12"/>
        <path d="M128 112v82" stroke-width="12"/>
        <path d="M128 130h34M128 149h27" stroke-width="9"/>
      </g>
      <g opacity=".82">
        <path d="M60 153c-13 8-21 19-24 33" fill="none" stroke="#5aa889" stroke-width="5" stroke-linecap="round"/>
        <path d="M41 161c5-4 10-4 15 0-4 4-10 4-15 0z" fill="#5aa889" transform="rotate(-33 41 161)"/>
        <path d="M33 177c5-4 10-4 15 0-4 4-10 4-15 0z" fill="#5aa889" transform="rotate(-49 33 177)"/>
        <path d="M196 153c13 8 21 19 24 33" fill="none" stroke="#5aa889" stroke-width="5" stroke-linecap="round"/>
        <path d="M216 160c5-4 10-4 15 0-4 4-10 4-15 0z" fill="#5aa889" transform="rotate(213 216 160)"/>
        <path d="M224 176c5-4 10-4 15 0-4 4-10 4-15 0z" fill="#5aa889" transform="rotate(229 224 176)"/>
      </g>
      <path d="M73 214h110" fill="none" stroke="#b78c38" stroke-width="5" stroke-linecap="square" stroke-dasharray="16 9"/>
      <circle cx="128" cy="222" r="8" fill="#ed6f5c"/>
    </g>
  </defs>
  <rect width="760" height="220" fill="#efe7d2"/>
  <g transform="translate(28 30) scale(.625)">
    <use href="#mark"/>
  </g>
  <g transform="translate(220 50)">
    <text x="0" y="50" fill="#15140f" font-family="Inter Tight, Inter, Arial, sans-serif" font-size="56" font-weight="900" letter-spacing="-3">Open</text>
    <text x="152" y="50" fill="#15140f" font-family="Playfair Display, Times New Roman, serif" font-size="58" font-weight="500" font-style="italic" letter-spacing="-4">Finance</text>
    <circle cx="370" cy="37" r="7" fill="#ed6f5c"/>
    <path d="M0 85h460" stroke="#15140f" stroke-width="1.5" opacity=".32"/>
    <path d="M0 101h460" stroke="#315f8b" stroke-width="8" stroke-dasharray="18 9 6 9" opacity=".78"/>
    <text x="0" y="143" fill="#5a5448" font-family="JetBrains Mono, SF Mono, Menlo, monospace" font-size="18" font-weight="500" letter-spacing="1.8">PRIVATE MONEY TRACKING / ATTIC LEDGER SYSTEM</text>
  </g>
</svg>
